<svg xmlns="http://www.w3.org/2000/svg" viewBox="0 0 480 480" role="img" aria-labelledby="title desc">
  <title id="title">Support QR placeholder</title>
  <desc id="desc">Placeholder image for the support QR code.</desc>
  <rect width="480" height="480" fill="#f5f1e9" />
  <rect x="24" y="24" width="432" height="432" rx="36" fill="#ffffff" stroke="#d9cfbf" stroke-width="6" />
  <g fill="#1f2a44">
    <rect x="72" y="72" width="96" height="96" rx="18" />
    <rect x="312" y="72" width="96" height="96" rx="18" />
    <rect x="72" y="312" width="96" height="96" rx="18" />
  </g>
  <g fill="#8c7a65">
    <rect x="206" y="88" width="28" height="28" rx="6" />
    <rect x="246" y="88" width="28" height="28" rx="6" />
    <rect x="206" y="132" width="28" height="28" rx="6" />
    <rect x="246" y="132" width="28" height="28" rx="6" />
    <rect x="206" y="176" width="28" height="28" rx="6" />
    <rect x="246" y="176" width="28" height="28" rx="6" />
    <rect x="120" y="210" width="28" height="28" rx="6" />
    <rect x="162" y="210" width="28" height="28" rx="6" />
    <rect x="300" y="210" width="28" height="28" rx="6" />
    <rect x="342" y="210" width="28" height="28" rx="6" />
    <rect x="120" y="252" width="28" height="28" rx="6" />
    <rect x="162" y="252" width="28" height="28" rx="6" />
    <rect x="300" y="252" width="28" height="28" rx="6" />
    <rect x="342" y="252" width="28" height="28" rx="6" />
    <rect x="206" y="296" width="28" height="28" rx="6" />
    <rect x="246" y="296" width="28" height="28" rx="6" />
    <rect x="206" y="340" width="28" height="28" rx="6" />
    <rect x="246" y="340" width="28" height="28" rx="6" />
  </g>
  <text x="240" y="446" text-anchor="middle" font-family="'Segoe UI', sans-serif" font-size="20" fill="#8c7a65">
    Add your QR image
  </text>
</svg>
